<svg width="100%" viewBox="0 0 680 726" xmlns="http://www.w3.org/2000/svg" role="img" xmlns:c2pa="http://c2pa.org/manifest"><metadata><c2pa:manifest>AAAWgmp1bWIAAAAeanVtZGMycGEAEQAQgAAAqgA4m3EDYzJwYQAAABZcanVtYgAAAEdqdW1kYzJtYQARABCAAACqADibcQN1cm46YzJwYTo5ZGIxZjVmNi03YzYwLTRkMzAtYjgzOC1jMGNiNDk5Nzc3OGYAAAADl2p1bWIAAAApanVtZGMyYXMAEQAQgAAAqgA4m3EDYzJwYS5hc3NlcnRpb25zAAAAALxqdW1iAAAARGp1bWRjYm9yABEAEIAAAKoAOJtxE2MycGEuaW5ncmVkaWVudC52MwAAAAAYYzJzaHA/rELwLc48qGxwnbhoZWYAAABwY2JvcqNpZGM6Zm9ybWF0bWltYWdlL3N2Zyt4bWxqaW5zdGFuY2VJRHgseG1wOmlpZDplMzBjMmQyMy0wZGIyLTQyZjctOTI4My01MWUwN2UyZTFkYjVscmVsYXRpb25zaGlwaHBhcmVudE9mAAAB4mp1bWIAAABBanVtZGNib3IAEQAQgAAAqgA4m3ETYzJwYS5hY3Rpb25zLnYyAAAAABhjMnNo1H0vD68aK0ubIrZ6ocbhYQAAAZljYm9yomdhY3Rpb25zgqJmYWN0aW9ua2MycGEub3BlbmVkanBhcmFtZXRlcnOha2luZ3JlZGllbnRzgaJjdXJseC1zZWxmI2p1bWJmPWMycGEuYXNzZXJ0aW9ucy9jMnBhLmluZ3JlZGllbnQudjNkaGFzaFggvSmKYHNOFNfotVZC+QkkSTOLI70z2LxhNCxlnIrkIgKkZmFjdGlvbngdY29tLmFudGhyb3BpYy5jbGF1ZGUucHJvdmlkZWRqcGFyYW1ldGVyc6F4H2NvbS5hbnRocm9waWMub3JpZ2luLWNvbmZpZGVuY2VndW5rbm93bmtkZXNjcmlwdGlvbnhmQ2xhdWRlIHByb3ZpZGVkIHRoaXMgZmlsZSBhdCB0aGUgcmVxdWVzdCBvZiBhIHVzZXIgYW5kIG1heSBoYXZlIGNyZWF0ZWQgb3IgbW9kaWZpZWQgdGhlIGZpbGUgY29udGVudHMubXNvZnR3YXJlQWdlbnShZG5hbWVmQ2xhdWRlcmFsbEFjdGlvbnNJbmNsdWRlZPUAAADIanVtYgAAAEBqdW1kY2JvcgARABCAAACqADibcRNjMnBhLmhhc2guZGF0YQAAAAAYYzJzaH7FiBsCBuyRG6uIEoKqC/4AAACAY2JvcqVjYWxnZnNoYTI1NmNwYWRNAAAAAAAAAAAAAAAAAGRoYXNoWCAcf0num688e5jdCJBLqga+yEyePrP4RGyxAd+Cr/REWmRuYW1lbmp1bWJmIG1hbmlmZXN0amV4Y2x1c2lvbnOBomVzdGFydBiVZmxlbmd0aBkeBAAAAj5qdW1iAAAAJ2p1bWRjMmNsABEAEIAAAKoAOJtxA2MycGEuY2xhaW0udjIAAAACD2Nib3KlY2FsZ2ZzaGEyNTZpc2lnbmF0dXJleE1zZWxmI2p1bWJmPS9jMnBhL3VybjpjMnBhOjlkYjFmNWY2LTdjNjAtNGQzMC1iODM4LWMwY2I0OTk3Nzc4Zi9jMnBhLnNpZ25hdHVyZWppbnN0YW5jZUlEeCx4bXA6aWlkOjExYjYxZDBlLTllMDMtNDM3Mi1iZGFhLTg3YTI5MjEwMmUyOXJjcmVhdGVkX2Fzc2VydGlvbnODomN1cmx4LXNlbGYjanVtYmY9YzJwYS5hc3NlcnRpb25zL2MycGEuaW5ncmVkaWVudC52M2RoYXNoWCC9KYpgc04U1+i1VkL5CSRJM4sjvTPYvGE0LGWciuQiAqJjdXJseCpzZWxmI2p1bWJmPWMycGEuYXNzZXJ0aW9ucy9jMnBhLmFjdGlvbnMudjJkaGFzaFgg8DtuD6D3DHa1PtbBfLBDB11rmr6gu4HTVujILLxE8HCiY3VybHgpc2VsZiNqdW1iZj1jMnBhLmFzc2VydGlvbnMvYzJwYS5oYXNoLmRhdGFkaGFzaFgg+jAnUWdAwFgDZnis101GNIyMwSGuDqR9qMNwlk5U/R50Y2xhaW1fZ2VuZXJhdG9yX2luZm+jZG5hbWVvQW50aHJvcGljIEZpbGVzZ3ZlcnNpb25lMS4wLjBrc3BlY1ZlcnNpb25lMi40LjAAABA4anVtYgAAAChqdW1kYzJjcwARABCAAACqADibcQNjMnBhLnNpZ25hdHVyZQAAABAIY2JvctKEWQISogEmGCFZAgowggIGMIIBjaADAgECAhRA5aAK7sI50L64g/oGQgU9Z1UTADAKBggqhkjOPQQDAzBJMRcwFQYDVQQKEw5BbnRocm9waWMsIFBCQzEuMCwGA1UEAxMlQW50aHJvcGljIENvbnRlbnQgQ3JlZGVudGlhbHMgUm9vdCBDQTAeFw0yNjA4MDcxODQzNTZaFw0yODA4MDYxOTQzNTZaMEQxFzAVBgNVBAoTDkFudGhyb3BpYywgUEJDMSkwJwYDVQQDEyBBbnRocm9waWMgQ2xhdWRlIENvbnRlbnQgU2lnbmluZzBZMBMGByqGSM49AgEGCCqGSM49AwEHA0IABJh6CmvLUBgFFNU0vUKlOVtE6djd17L5SuwX0LemFisBM3dkd/3cyjxFA3Qo5S46fX0/ihY0VZ7mfb9KF703t5OjWDBWMA4GA1UdDwEB/wQEAwIHgDAVBgNVHSUEDjAMBgorBgEEAYPoXgIBMAwGA1UdEwEB/wQCMAAwHwYDVR0jBBgwFoAUzlHiBIFOZFsj+OPEz5o+nMHXXMIwCgYIKoZIzj0EAwMDZwAwZAIwMXMdFJ4BetLLVY7ORuE9noqbbAZOZn/aArXyTwFAZfKrPzxF2vPoJNf1+UCdg1XGAjBwX1zd9WGqYkqmL5SFqw1QySjr1zJfpJM9+1rdDwSPLMOPOjKuiXjoU/pUUeG9RwmhY3BhZFkNngAAAAAAAAAAAAAAAAAAAAAAAAAAAAAAAAAAAAAAAAAAAAAAAAAAAAAAAAAAAAAAAAAAAAAAAAAAAAAAAAAAAAAAAAAAAAAAAAAAAAAAAAAAAAAAAAAAAAAAAAAAAAAAAAAAAAAAAAAAAAAAAAAAAAAAAAAAAAAAAAAAAAAAAAAAAAAAAAAAAAAAAAAAAAAAAAAAAAAAAAAAAAAAAAAAAAAAAAAAAAAAAAAAAAAAAAAAAAAAAAAAAAAAAAAAAAAAAAAAAAAAAAAAAAAAAAAAAAAAAAAAAAAAAAAAAAAAAAAAAAAAAAAAAAAAAAAAAAAAAAAAAAAAAAAAAAAAAAAAAAAAAAAAAAAAAAAAAAAAAAAAAAAAAAAAAAAAAAAAAAAAAAAAAAAAAAAAAAAAAAAAAAAAAAAAAAAAAAAAAAAAAAAAAAAAAAAAAAAAAAAAAAAAAAAAAAAAAAAAAAAAAAAAAAAAAAAAAAAAAAAAAAAAAAAAAAAAAAAAAAAAAAAAAAAAAAAAAAAAAAAAAAAAAAAAAAAAAAAAAAAAAAAAAAAAAAAAAAAAAAAAAAAAAAAAAAAAAAAAAAAAAAAAAAAAAAAAAAAAAAAAAAAAAAAAAAAAAAAAAAAAAAAAAAAAAAAAAAAAAAAAAAAAAAAAAAAAAAAAAAAAAAAAAAAAAAAAAAAAAAAAAAAAAAAAAAAAAAAAAAAAAAAAAAAAAAAAAAAAAAAAAAAAAAAAAAAAAAAAAAAAAAAAAAAAAAAAAAAAAAAAAAAAAAAAAAAAAAAAAAAAAAAAAAAAAAAAAAAAAAAAAAAAAAAAAAAAAAAAAAAAAAAAAAAAAAAAAAAAAAAAAAAAAAAAAAAAAAAAAAAAAAAAAAAAAAAAAAAAAAAAAAAAAAAAAAAAAAAAAAAAAAAAAAAAAAAAAAAAAAAAAAAAAAAAAAAAAAAAAAAAAAAAAAAAAAAAAAAAAAAAAAAAAAAAAAAAAAAAAAAAAAAAAAAAAAAAAAAAAAAAAAAAAAAAAAAAAAAAAAAAAAAAAAAAAAAAAAAAAAAAAAAAAAAAAAAAAAAAAAAAAAAAAAAAAAAAAAAAAAAAAAAAAAAAAAAAAAAAAAAAAAAAAAAAAAAAAAAAAAAAAAAAAAAAAAAAAAAAAAAAAAAAAAAAAAAAAAAAAAAAAAAAAAAAAAAAAAAAAAAAAAAAAAAAAAAAAAAAAAAAAAAAAAAAAAAAAAAAAAAAAAAAAAAAAAAAAAAAAAAAAAAAAAAAAAAAAAAAAAAAAAAAAAAAAAAAAAAAAAAAAAAAAAAAAAAAAAAAAAAAAAAAAAAAAAAAAAAAAAAAAAAAAAAAAAAAAAAAAAAAAAAAAAAAAAAAAAAAAAAAAAAAAAAAAAAAAAAAAAAAAAAAAAAAAAAAAAAAAAAAAAAAAAAAAAAAAAAAAAAAAAAAAAAAAAAAAAAAAAAAAAAAAAAAAAAAAAAAAAAAAAAAAAAAAAAAAAAAAAAAAAAAAAAAAAAAAAAAAAAAAAAAAAAAAAAAAAAAAAAAAAAAAAAAAAAAAAAAAAAAAAAAAAAAAAAAAAAAAAAAAAAAAAAAAAAAAAAAAAAAAAAAAAAAAAAAAAAAAAAAAAAAAAAAAAAAAAAAAAAAAAAAAAAAAAAAAAAAAAAAAAAAAAAAAAAAAAAAAAAAAAAAAAAAAAAAAAAAAAAAAAAAAAAAAAAAAAAAAAAAAAAAAAAAAAAAAAAAAAAAAAAAAAAAAAAAAAAAAAAAAAAAAAAAAAAAAAAAAAAAAAAAAAAAAAAAAAAAAAAAAAAAAAAAAAAAAAAAAAAAAAAAAAAAAAAAAAAAAAAAAAAAAAAAAAAAAAAAAAAAAAAAAAAAAAAAAAAAAAAAAAAAAAAAAAAAAAAAAAAAAAAAAAAAAAAAAAAAAAAAAAAAAAAAAAAAAAAAAAAAAAAAAAAAAAAAAAAAAAAAAAAAAAAAAAAAAAAAAAAAAAAAAAAAAAAAAAAAAAAAAAAAAAAAAAAAAAAAAAAAAAAAAAAAAAAAAAAAAAAAAAAAAAAAAAAAAAAAAAAAAAAAAAAAAAAAAAAAAAAAAAAAAAAAAAAAAAAAAAAAAAAAAAAAAAAAAAAAAAAAAAAAAAAAAAAAAAAAAAAAAAAAAAAAAAAAAAAAAAAAAAAAAAAAAAAAAAAAAAAAAAAAAAAAAAAAAAAAAAAAAAAAAAAAAAAAAAAAAAAAAAAAAAAAAAAAAAAAAAAAAAAAAAAAAAAAAAAAAAAAAAAAAAAAAAAAAAAAAAAAAAAAAAAAAAAAAAAAAAAAAAAAAAAAAAAAAAAAAAAAAAAAAAAAAAAAAAAAAAAAAAAAAAAAAAAAAAAAAAAAAAAAAAAAAAAAAAAAAAAAAAAAAAAAAAAAAAAAAAAAAAAAAAAAAAAAAAAAAAAAAAAAAAAAAAAAAAAAAAAAAAAAAAAAAAAAAAAAAAAAAAAAAAAAAAAAAAAAAAAAAAAAAAAAAAAAAAAAAAAAAAAAAAAAAAAAAAAAAAAAAAAAAAAAAAAAAAAAAAAAAAAAAAAAAAAAAAAAAAAAAAAAAAAAAAAAAAAAAAAAAAAAAAAAAAAAAAAAAAAAAAAAAAAAAAAAAAAAAAAAAAAAAAAAAAAAAAAAAAAAAAAAAAAAAAAAAAAAAAAAAAAAAAAAAAAAAAAAAAAAAAAAAAAAAAAAAAAAAAAAAAAAAAAAAAAAAAAAAAAAAAAAAAAAAAAAAAAAAAAAAAAAAAAAAAAAAAAAAAAAAAAAAAAAAAAAAAAAAAAAAAAAAAAAAAAAAAAAAAAAAAAAAAAAAAAAAAAAAAAAAAAAAAAAAAAAAAAAAAAAAAAAAAAAAAAAAAAAAAAAAAAAAAAAAAAAAAAAAAAAAAAAAAAAAAAAAAAAAAAAAAAAAAAAAAAAAAAAAAAAAAAAAAAAAAAAAAAAAAAAAAAAAAAAAAAAAAAAAAAAAAAAAAAAAAAAAAAAAAAAAAAAAAAAAAAAAAAAAAAAAAAAAAAAAAAAAAAAAAAAAAAAAAAAAAAAAAAAAAAAAAAAAAAAAAAAAAAAAAAAAAAAAAAAAAAAAAAAAAAAAAAAAAAAAAAAAAAAAAAAAAAAAAAAAAAAAAAAAAAAAAAAAAAAAAAAAAAAAAAAAAAAAAAAAAAAAAAAAAAAAAAAAAAAAAAAAAAAAAAAAAAAAAAAAAAAAAAAAAAAAAAAAAAAAAAAAAAAAAAAAAAAAAAAAAAAAAAAAAAAAAAAAAAAAAAAAAAAAAAAAAAAAAAAAAAAAAAAAAAAAAAAAAAAAAAAAAAAAAAAAAAAAAAAAAAAAAAAAAAAAAAAAAAAAAAAAAAAAAAAAAAAAAAAAAAAAAAAAAAAAAAAAAAAAAAAAAAAAAAAAAAAAAAAAAAAAAAAAAAAAAAAAAAAAAAAAAAAAAAAAAAAAAAAAAAAAAAAAAAAAAAAAAAAAAAAAAAAAAAAAAAAAAAAAAAAAAAAAAAAAAAAAAAAAAAAAAAAAAAAAAAAAAAAAAAAAAAAAAAAAAAAAAAAAAAAAAAAAAAAAAAAAAAAAAAAAAAAAAAAAAAAAAAAAAAAAAAAAAAAAAAAAAAAAAAAAAAAAAAAAAAAAAAAAAAAAAAAAAAAAAAAAAAAAAAAAAAAAAAAAAAAAAAAAAAAAAAAAAAAAAAAAAAAAAAAAAAAAAAAAAAAAAAAAAAAAAAAAAAAAAAAAAAAAAAAAAAAAAAAAAAAAAAAAAAAAAAAAAAAAAAAAAAAAAAAAAAAAAAAAAAAAAAAAAAAAAAAAAAAAAAAAAAAAAAAAAAAAAAAAAAAAAAAAAAAAAAAAAAAAAAAAAAAAAAAAAAAAAAAAAAAAAAAAAAAAAAAAAAAAAAAAAAAAAAAAAAAAAAAAAAAAAAAAAAAAAAAAAAAAAAAAAAAAAAAAAAAAAAAAAAAAAAAAAAAAAAAAAAAAAAAAAAAAAAAAAAAAAAAAAAAAAAAAAAAAAAAAAAAAAAAAAAAAAAAAAAAAAAAAAAAAAAAAAAAAAAAAAAAAAAAAAAAAAAAAAAAAAAAAAAAAAAAAAAAAAAAAAAAAAAAAAAAAAAAAAAAAAAAAAAAAAAAAAAAAAAAAAAAAAAAAAAAAAAAAAAAAAAAAAAAAAAAAAAAAAAAAAAAAAAAAAAAAAAAAAAAAAAAAAAAAAAAAAAAAAAAAAAAAAAAAAAAAAAAAAAAAAAAAAAAAAAAAAAAAAAAAAAAAAAAAAAAAAAAAAAAAAAAAAAAAAAAAAAAAAAAAAAAAAAAAAAAAAAAAAAAAAAAAAAAAAAAAAAAAAAAAAAAAAAAAAAAAAAAAAAAAAAAAAAAAAAAAAAAAAAAAAAAAAAAAAAAAAAAAAAAAAAAAAAAAAAAAAAAAAAAAAAAAAAAAAAAAAAAAAAAAAAAAAAAAAAAAAAAAAAAAAAAAAAAAAAAAAAAAAAAAAAAAAAAAAAAAAAAAAAAAAAAAAAAAAAAAAAAAAAAAAAAAAAAAAAAAAAAAAAAAAAAAAAAAAAAAAAAAAAAAAAAAAAAAAAAAAAAAAAAAAAAAAAAAAAAAAAAAAAAAAAAAAAAAAAAAAAAAAAAAAAAAAAAAAAAAAAAAAAAAAAAAAAAAAAAAAAAAAAAAAAAAAAAAAAAAAAAAAAAAAAAAAAAAAAAAAAAAAAAAAAAAAAAAPZYQPnZfBfLEjbLF1hBByB2NV5VqkacnskGRmOmUUDkgnf2rc3GmkcAsSftH+ZqU6ZE/wsX1pw1VNOYCP6DskYz0/o=</c2pa:manifest></metadata>
<rect x="0" y="0" width="680" height="726" fill="#FAFAF7"/>
<svg x="0" y="86" width="680" height="620" viewBox="0 0 680 620">



<style>
.b03-pg{animation-duration:5s;animation-iteration-count:infinite;animation-timing-function:cubic-bezier(0.45,0,0.55,1)}
@keyframes b03-pg0{0%,12%{transform:translate(0px,0px)}50%,70%{transform:translate(0px,5px)}100%{transform:translate(0px,0px)}}
@keyframes b03-pg1{0%,12%{transform:translate(-32px,16px)}50%,70%{transform:translate(-122px,66px)}100%{transform:translate(-32px,16px)}}
@keyframes b03-pg2{0%,12%{transform:translate(32px,16px)}50%,70%{transform:translate(122px,66px)}100%{transform:translate(32px,16px)}}
@keyframes b03-pg3{0%,12%{transform:translate(-64px,32px)}50%,70%{transform:translate(-244px,127px)}100%{transform:translate(-64px,32px)}}
@keyframes b03-pg4{0%,12%{transform:translate(0px,32px)}50%,70%{transform:translate(0px,127px)}100%{transform:translate(0px,32px)}}
@keyframes b03-pg5{0%,12%{transform:translate(64px,32px)}50%,70%{transform:translate(244px,127px)}100%{transform:translate(64px,32px)}}
@keyframes b03-pg6{0%,12%{transform:translate(-32px,48px)}50%,70%{transform:translate(-122px,188px)}100%{transform:translate(-32px,48px)}}
@keyframes b03-pg7{0%,12%{transform:translate(32px,48px)}50%,70%{transform:translate(122px,188px)}100%{transform:translate(32px,48px)}}
@keyframes b03-pg8{0%,12%{transform:translate(0px,64px)}50%,70%{transform:translate(0px,249px)}100%{transform:translate(0px,64px)}}
@keyframes b03-pg9{0%,12%{transform:translate(0px,-32px)}50%,70%{transform:translate(0px,-122px)}100%{transform:translate(0px,-32px)}}
@keyframes b03-pg10{0%,12%{transform:translate(-32px,-16px)}50%,70%{transform:translate(-122px,-61px)}100%{transform:translate(-32px,-16px)}}
@keyframes b03-pg11{0%,12%{transform:translate(32px,-16px)}50%,70%{transform:translate(122px,-61px)}100%{transform:translate(32px,-16px)}}
@keyframes b03-pg12{0%,12%{transform:translate(-64px,0px)}50%,70%{transform:translate(-244px,0px)}100%{transform:translate(-64px,0px)}}
@keyframes b03-pg13{0%,12%{transform:translate(0px,0px)}50%,70%{transform:translate(0px,0px)}100%{transform:translate(0px,0px)}}
@keyframes b03-pg14{0%,12%{transform:translate(64px,0px)}50%,70%{transform:translate(244px,0px)}100%{transform:translate(64px,0px)}}
@keyframes b03-pg15{0%,12%{transform:translate(-32px,16px)}50%,70%{transform:translate(-122px,61px)}100%{transform:translate(-32px,16px)}}
@keyframes b03-pg16{0%,12%{transform:translate(32px,16px)}50%,70%{transform:translate(122px,61px)}100%{transform:translate(32px,16px)}}
@keyframes b03-pg17{0%,12%{transform:translate(0px,32px)}50%,70%{transform:translate(0px,122px)}100%{transform:translate(0px,32px)}}
@keyframes b03-pg18{0%,12%{transform:translate(0px,-64px)}50%,70%{transform:translate(0px,-249px)}100%{transform:translate(0px,-64px)}}
@keyframes b03-pg19{0%,12%{transform:translate(-32px,-48px)}50%,70%{transform:translate(-122px,-188px)}100%{transform:translate(-32px,-48px)}}
@keyframes b03-pg20{0%,12%{transform:translate(32px,-48px)}50%,70%{transform:translate(122px,-188px)}100%{transform:translate(32px,-48px)}}
@keyframes b03-pg21{0%,12%{transform:translate(-64px,-32px)}50%,70%{transform:translate(-244px,-127px)}100%{transform:translate(-64px,-32px)}}
@keyframes b03-pg22{0%,12%{transform:translate(0px,-32px)}50%,70%{transform:translate(0px,-127px)}100%{transform:translate(0px,-32px)}}
@keyframes b03-pg23{0%,12%{transform:translate(64px,-32px)}50%,70%{transform:translate(244px,-127px)}100%{transform:translate(64px,-32px)}}
@keyframes b03-pg24{0%,12%{transform:translate(-32px,-16px)}50%,70%{transform:translate(-122px,-66px)}100%{transform:translate(-32px,-16px)}}
@keyframes b03-pg25{0%,12%{transform:translate(32px,-16px)}50%,70%{transform:translate(122px,-66px)}100%{transform:translate(32px,-16px)}}
@keyframes b03-pg26{0%,12%{transform:translate(0px,0px)}50%,70%{transform:translate(0px,-5px)}100%{transform:translate(0px,0px)}}
</style>
<g transform="translate(340,320)">
<g class="b03-pg" style="animation-name:b03-pg0">
<polygon points="0,32 32,16 64,32 32,48" fill="#232320" stroke="#141412" stroke-width="0.5"/>
<polygon points="0,32 32,48 32,80 0,64" fill="#1D9E75" stroke="#0F6E56" stroke-width="0.5"/>
<polygon points="32,48 64,32 64,64 32,80" fill="#232320" stroke="#141412" stroke-width="0.5"/>
</g>
<g class="b03-pg" style="animation-name:b03-pg1">
<polygon points="0,32 32,16 64,32 32,48" fill="#232320" stroke="#141412" stroke-width="0.5"/>
<polygon points="0,32 32,48 32,80 0,64" fill="#232320" stroke="#141412" stroke-width="0.5"/>
<polygon points="32,48 64,32 64,64 32,80" fill="#232320" stroke="#141412" stroke-width="0.5"/>
</g>
<g class="b03-pg" style="animation-name:b03-pg2">
<polygon points="0,32 32,16 64,32 32,48" fill="#232320" stroke="#141412" stroke-width="0.5"/>
<polygon points="0,32 32,48 32,80 0,64" fill="#1D9E75" stroke="#0F6E56" stroke-width="0.5"/>
<polygon points="32,48 64,32 64,64 32,80" fill="#232320" stroke="#141412" stroke-width="0.5"/>
</g>
<g class="b03-pg" style="animation-name:b03-pg3">
<polygon points="0,32 32,16 64,32 32,48" fill="#232320" stroke="#141412" stroke-width="0.5"/>
<polygon points="0,32 32,48 32,80 0,64" fill="#232320" stroke="#141412" stroke-width="0.5"/>
<polygon points="32,48 64,32 64,64 32,80" fill="#232320" stroke="#141412" stroke-width="0.5"/>
</g>
<g class="b03-pg" style="animation-name:b03-pg4">
<polygon points="0,32 32,16 64,32 32,48" fill="#232320" stroke="#141412" stroke-width="0.5"/>
<polygon points="0,32 32,48 32,80 0,64" fill="#232320" stroke="#141412" stroke-width="0.5"/>
<polygon points="32,48 64,32 64,64 32,80" fill="#232320" stroke="#141412" stroke-width="0.5"/>
</g>
<g class="b03-pg" style="animation-name:b03-pg5">
<polygon points="0,32 32,16 64,32 32,48" fill="#232320" stroke="#141412" stroke-width="0.5"/>
<polygon points="0,32 32,48 32,80 0,64" fill="#1D9E75" stroke="#0F6E56" stroke-width="0.5"/>
<polygon points="32,48 64,32 64,64 32,80" fill="#D85A30" stroke="#993C1D" stroke-width="0.5"/>
</g>
<g class="b03-pg" style="animation-name:b03-pg6">
<polygon points="0,32 32,16 64,32 32,48" fill="#232320" stroke="#141412" stroke-width="0.5"/>
<polygon points="0,32 32,48 32,80 0,64" fill="#232320" stroke="#141412" stroke-width="0.5"/>
<polygon points="32,48 64,32 64,64 32,80" fill="#232320" stroke="#141412" stroke-width="0.5"/>
</g>
<g class="b03-pg" style="animation-name:b03-pg7">
<polygon points="0,32 32,16 64,32 32,48" fill="#232320" stroke="#141412" stroke-width="0.5"/>
<polygon points="0,32 32,48 32,80 0,64" fill="#232320" stroke="#141412" stroke-width="0.5"/>
<polygon points="32,48 64,32 64,64 32,80" fill="#D85A30" stroke="#993C1D" stroke-width="0.5"/>
</g>
<g class="b03-pg" style="animation-name:b03-pg8">
<polygon points="0,32 32,16 64,32 32,48" fill="#232320" stroke="#141412" stroke-width="0.5"/>
<polygon points="0,32 32,48 32,80 0,64" fill="#232320" stroke="#141412" stroke-width="0.5"/>
<polygon points="32,48 64,32 64,64 32,80" fill="#D85A30" stroke="#993C1D" stroke-width="0.5"/>
</g>
<g class="b03-pg" style="animation-name:b03-pg9">
<polygon points="0,32 32,16 64,32 32,48" fill="#232320" stroke="#141412" stroke-width="0.5"/>
<polygon points="0,32 32,48 32,80 0,64" fill="#1D9E75" stroke="#0F6E56" stroke-width="0.5"/>
<polygon points="32,48 64,32 64,64 32,80" fill="#232320" stroke="#141412" stroke-width="0.5"/>
</g>
<g class="b03-pg" style="animation-name:b03-pg10">
<polygon points="0,32 32,16 64,32 32,48" fill="#232320" stroke="#141412" stroke-width="0.5"/>
<polygon points="0,32 32,48 32,80 0,64" fill="#232320" stroke="#141412" stroke-width="0.5"/>
<polygon points="32,48 64,32 64,64 32,80" fill="#232320" stroke="#141412" stroke-width="0.5"/>
</g>
<g class="b03-pg" style="animation-name:b03-pg11">
<polygon points="0,32 32,16 64,32 32,48" fill="#232320" stroke="#141412" stroke-width="0.5"/>
<polygon points="0,32 32,48 32,80 0,64" fill="#1D9E75" stroke="#0F6E56" stroke-width="0.5"/>
<polygon points="32,48 64,32 64,64 32,80" fill="#232320" stroke="#141412" stroke-width="0.5"/>
</g>
<g class="b03-pg" style="animation-name:b03-pg12">
<polygon points="0,32 32,16 64,32 32,48" fill="#232320" stroke="#141412" stroke-width="0.5"/>
<polygon points="0,32 32,48 32,80 0,64" fill="#232320" stroke="#141412" stroke-width="0.5"/>
<polygon points="32,48 64,32 64,64 32,80" fill="#232320" stroke="#141412" stroke-width="0.5"/>
</g>
<g class="b03-pg" style="animation-name:b03-pg13">
<polygon points="0,32 32,16 64,32 32,48" fill="#232320" stroke="#141412" stroke-width="0.5"/>
<polygon points="0,32 32,48 32,80 0,64" fill="#232320" stroke="#141412" stroke-width="0.5"/>
<polygon points="32,48 64,32 64,64 32,80" fill="#232320" stroke="#141412" stroke-width="0.5"/>
</g>
<g class="b03-pg" style="animation-name:b03-pg14">
<polygon points="0,32 32,16 64,32 32,48" fill="#232320" stroke="#141412" stroke-width="0.5"/>
<polygon points="0,32 32,48 32,80 0,64" fill="#1D9E75" stroke="#0F6E56" stroke-width="0.5"/>
<polygon points="32,48 64,32 64,64 32,80" fill="#D85A30" stroke="#993C1D" stroke-width="0.5"/>
</g>
<g class="b03-pg" style="animation-name:b03-pg15">
<polygon points="0,32 32,16 64,32 32,48" fill="#232320" stroke="#141412" stroke-width="0.5"/>
<polygon points="0,32 32,48 32,80 0,64" fill="#232320" stroke="#141412" stroke-width="0.5"/>
<polygon points="32,48 64,32 64,64 32,80" fill="#232320" stroke="#141412" stroke-width="0.5"/>
</g>
<g class="b03-pg" style="animation-name:b03-pg16">
<polygon points="0,32 32,16 64,32 32,48" fill="#232320" stroke="#141412" stroke-width="0.5"/>
<polygon points="0,32 32,48 32,80 0,64" fill="#232320" stroke="#141412" stroke-width="0.5"/>
<polygon points="32,48 64,32 64,64 32,80" fill="#D85A30" stroke="#993C1D" stroke-width="0.5"/>
</g>
<g class="b03-pg" style="animation-name:b03-pg17">
<polygon points="0,32 32,16 64,32 32,48" fill="#232320" stroke="#141412" stroke-width="0.5"/>
<polygon points="0,32 32,48 32,80 0,64" fill="#232320" stroke="#141412" stroke-width="0.5"/>
<polygon points="32,48 64,32 64,64 32,80" fill="#D85A30" stroke="#993C1D" stroke-width="0.5"/>
</g>
<g class="b03-pg" style="animation-name:b03-pg18">
<polygon points="0,32 32,16 64,32 32,48" fill="#F3F3ED" stroke="#B4B2A9" stroke-width="0.5"/>
<polygon points="0,32 32,48 32,80 0,64" fill="#1D9E75" stroke="#0F6E56" stroke-width="0.5"/>
<polygon points="32,48 64,32 64,64 32,80" fill="#232320" stroke="#141412" stroke-width="0.5"/>
</g>
<g class="b03-pg" style="animation-name:b03-pg19">
<polygon points="0,32 32,16 64,32 32,48" fill="#F3F3ED" stroke="#B4B2A9" stroke-width="0.5"/>
<polygon points="0,32 32,48 32,80 0,64" fill="#232320" stroke="#141412" stroke-width="0.5"/>
<polygon points="32,48 64,32 64,64 32,80" fill="#232320" stroke="#141412" stroke-width="0.5"/>
</g>
<g class="b03-pg" style="animation-name:b03-pg20">
<polygon points="0,32 32,16 64,32 32,48" fill="#F3F3ED" stroke="#B4B2A9" stroke-width="0.5"/>
<polygon points="0,32 32,48 32,80 0,64" fill="#1D9E75" stroke="#0F6E56" stroke-width="0.5"/>
<polygon points="32,48 64,32 64,64 32,80" fill="#232320" stroke="#141412" stroke-width="0.5"/>
</g>
<g class="b03-pg" style="animation-name:b03-pg21">
<polygon points="0,32 32,16 64,32 32,48" fill="#F3F3ED" stroke="#B4B2A9" stroke-width="0.5"/>
<polygon points="0,32 32,48 32,80 0,64" fill="#232320" stroke="#141412" stroke-width="0.5"/>
<polygon points="32,48 64,32 64,64 32,80" fill="#232320" stroke="#141412" stroke-width="0.5"/>
</g>
<g class="b03-pg" style="animation-name:b03-pg22">
<polygon points="0,32 32,16 64,32 32,48" fill="#F3F3ED" stroke="#B4B2A9" stroke-width="0.5"/>
<polygon points="0,32 32,48 32,80 0,64" fill="#232320" stroke="#141412" stroke-width="0.5"/>
<polygon points="32,48 64,32 64,64 32,80" fill="#232320" stroke="#141412" stroke-width="0.5"/>
</g>
<g class="b03-pg" style="animation-name:b03-pg23">
<polygon points="0,32 32,16 64,32 32,48" fill="#F3F3ED" stroke="#B4B2A9" stroke-width="0.5"/>
<polygon points="0,32 32,48 32,80 0,64" fill="#1D9E75" stroke="#0F6E56" stroke-width="0.5"/>
<polygon points="32,48 64,32 64,64 32,80" fill="#D85A30" stroke="#993C1D" stroke-width="0.5"/>
</g>
<g class="b03-pg" style="animation-name:b03-pg24">
<polygon points="0,32 32,16 64,32 32,48" fill="#F3F3ED" stroke="#B4B2A9" stroke-width="0.5"/>
<polygon points="0,32 32,48 32,80 0,64" fill="#232320" stroke="#141412" stroke-width="0.5"/>
<polygon points="32,48 64,32 64,64 32,80" fill="#232320" stroke="#141412" stroke-width="0.5"/>
</g>
<g class="b03-pg" style="animation-name:b03-pg25">
<polygon points="0,32 32,16 64,32 32,48" fill="#F3F3ED" stroke="#B4B2A9" stroke-width="0.5"/>
<polygon points="0,32 32,48 32,80 0,64" fill="#232320" stroke="#141412" stroke-width="0.5"/>
<polygon points="32,48 64,32 64,64 32,80" fill="#D85A30" stroke="#993C1D" stroke-width="0.5"/>
</g>
<g class="b03-pg" style="animation-name:b03-pg26">
<polygon points="0,32 32,16 64,32 32,48" fill="#F3F3ED" stroke="#B4B2A9" stroke-width="0.5"/>
<polygon points="0,32 32,48 32,80 0,64" fill="#232320" stroke="#141412" stroke-width="0.5"/>
<polygon points="32,48 64,32 64,64 32,80" fill="#D85A30" stroke="#993C1D" stroke-width="0.5"/>
</g>
</g>

</svg>
</svg>
